# Blender 4.0.2
# www.blender.org
mtllib Bald sword.mtl
o Blade
v 0.000000 -10.606515 -0.191384
v 0.000000 -10.606515 0.191384
v 0.000000 -8.600304 -0.191384
v 0.000000 -8.600304 0.191384
v -1.553592 2.938322 -0.191384
v -2.302555 2.827098 -0.000000
v -0.990460 -8.870656 0.000000
v -0.765095 -8.870656 -0.191384
v -1.553592 2.938322 0.191384
v -2.302555 2.827098 0.000000
v -0.765095 -8.870656 0.191384
v -0.990460 -8.870656 0.000000
v 0.000000 12.567310 0.191384
v 0.000000 13.472604 0.000000
v 0.000000 12.567310 -0.191384
v 0.000000 13.472604 -0.000000
v -2.302555 -8.600304 0.000000
v -1.552769 -8.600304 0.191384
v -2.302555 -8.600304 -0.000000
v -1.552769 -8.600304 -0.191384
v 1.553592 2.938322 -0.191384
v 2.302555 2.827098 -0.000000
v 0.990460 -8.870656 0.000000
v 0.765095 -8.870656 -0.191384
v 1.553592 2.938322 0.191384
v 2.302555 2.827098 0.000000
v 0.765095 -8.870656 0.191384
v 0.990460 -8.870656 0.000000
v 2.302555 -8.600304 0.000000
v 1.552769 -8.600304 0.191384
v 2.302555 -8.600304 -0.000000
v 1.552769 -8.600304 -0.191384
vn -0.0000 -0.0000 -1.0000
vn -0.0000 -0.0000 1.0000
vn -0.9774 0.2114 -0.0000
vn -0.2018 -0.9794 -0.0000
vn -1.0000 -0.0000 -0.0000
vn -0.8924 -0.4513 -0.0000
vn -0.2474 -0.0000 0.9689
vn -0.2105 -0.8174 -0.5362
vn -0.3903 0.0742 0.9177
vn -0.3903 0.0742 -0.9177
vn -0.2105 -0.8174 0.5362
vn -0.2474 -0.0000 -0.9689
vn 0.9774 0.2114 -0.0000
vn 0.2018 -0.9794 -0.0000
vn 1.0000 -0.0000 -0.0000
vn 0.8924 -0.4513 -0.0000
vn 0.2474 -0.0000 0.9689
vn 0.2105 -0.8174 -0.5362
vn 0.3903 0.0742 0.9177
vn 0.3903 0.0742 -0.9177
vn 0.2105 -0.8174 0.5362
vn 0.2474 -0.0000 -0.9689
vt 0.154738 0.915614
vt 0.154576 0.437953
vt 0.451062 0.039157
vt 0.460935 0.915421
vt 0.462346 0.998472
vt 0.462346 0.915421
vt 0.768542 0.915614
vt 0.613218 0.926708
vt 0.468526 0.001528
vt 0.922575 0.442505
vt 0.961640 0.178584
vt 0.961640 0.109717
vt 0.961640 0.109717
vt 0.961640 0.178584
vt 0.310063 0.926708
vt 0.460935 0.998472
vt 0.961640 -0.026500
vt 0.472219 0.039157
vt 0.768705 0.437953
vt 1.009144 0.189860
vt 1.009144 0.248830
vt 0.914137 0.248830
vt 0.914137 0.189860
vt 0.922575 0.915562
vt 1.009144 0.147229
vt 0.000706 0.442505
vt 0.454755 0.001528
vt 0.914137 0.147229
vt 0.000706 0.915562
s 0
usemtl Blade
f 20/1/1 5/2/1 15/3/1 3/4/1
f 2/5/2 4/6/2 18/7/2 11/8/2
f 16/9/3 6/10/3 10/10/3 14/9/3
f 12/11/4 17/12/4 19/13/4 7/14/4
f 8/15/1 20/1/1 3/4/1 1/16/1
f 17/12/5 10/17/5 6/17/5 19/13/5
f 4/6/2 13/18/2 9/19/2 18/7/2
f 7/14/6 8/20/6 1/21/6 2/22/6 11/23/6 12/11/6
f 18/7/7 9/19/7 10/10/7 17/24/7
f 20/25/8 8/20/8 7/14/8 19/13/8
f 14/9/9 10/10/9 9/19/9 13/18/9
f 6/26/10 16/27/10 15/3/10 5/2/10
f 11/23/11 18/28/11 17/12/11 12/11/11
f 5/2/12 20/1/12 19/29/12 6/26/12
f 32/1/1 3/4/1 15/3/1 21/2/1
f 2/5/2 27/8/2 30/7/2 4/6/2
f 16/9/13 14/9/13 26/10/13 22/10/13
f 28/11/14 23/14/14 31/13/14 29/12/14
f 24/15/1 1/16/1 3/4/1 32/1/1
f 29/12/15 31/13/15 22/17/15 26/17/15
f 4/6/2 30/7/2 25/19/2 13/18/2
f 23/14/16 28/11/16 27/23/16 2/22/16 1/21/16 24/20/16
f 30/7/17 29/24/17 26/10/17 25/19/17
f 32/25/18 31/13/18 23/14/18 24/20/18
f 14/9/19 13/18/19 25/19/19 26/10/19
f 22/26/20 21/2/20 15/3/20 16/27/20
f 27/23/21 28/11/21 29/12/21 30/28/21
f 21/2/22 22/26/22 31/29/22 32/1/22
o Handle
v 0.000000 -9.722237 -1.000000
v -0.866025 -9.722237 -0.500000
v -0.866025 -9.722237 0.500000
v 0.000000 -9.722237 1.000000
v 0.866025 -9.722237 0.500000
v 0.866025 -9.722237 -0.500000
v 0.000000 -19.994881 -1.000000
v -0.866025 -19.994881 -0.500000
v -0.866025 -19.994881 0.500000
v 0.000000 -19.994881 1.000000
v 0.866025 -19.994881 0.500000
v 0.866025 -19.994881 -0.500000
v -1.098157 -9.544880 -0.634021
v -1.098157 -9.544880 0.634021
v 1.098157 -9.544880 0.634021
v 1.098157 -9.544880 -0.634021
v 0.000000 -9.544880 1.268043
v 0.000000 -9.544880 -1.268043
v -1.196898 -8.786686 -0.691029
v -1.309255 -8.945369 -0.755899
v 0.000000 -8.945369 -1.511798
v -0.000000 -8.786686 -1.382059
v -1.196898 -8.786686 0.691029
v -1.309255 -8.945369 0.755899
v 0.000000 -8.786686 1.382059
v 0.000000 -8.945369 1.511798
v 1.196898 -8.786686 0.691029
v 1.309255 -8.945369 0.755899
v 1.196898 -8.786686 -0.691029
v 1.309255 -8.945369 -0.755899
vn -0.0000 1.0000 -0.0000
vn -0.4716 0.3321 0.8169
vn -1.0000 -0.0000 -0.0000
vn 0.5000 -0.0000 -0.8660
vn 0.5000 -0.0000 0.8660
vn -0.5000 -0.0000 0.8660
vn -0.5000 -0.0000 -0.8660
vn 1.0000 -0.0000 -0.0000
vn 0.9432 0.3321 -0.0000
vn -0.4716 0.3321 -0.8169
vn -0.0000 -1.0000 -0.0000
vn 0.4716 0.3321 -0.8169
vn -0.9432 0.3321 -0.0000
vn -0.3036 0.7946 -0.5258
vn -0.3036 0.7946 0.5258
vn 0.3036 0.7946 0.5258
vn 0.3036 0.7946 -0.5258
vn -0.6071 0.7946 -0.0000
vn 0.6071 0.7946 -0.0000
vn 0.4081 -0.5779 0.7068
vn 0.8161 -0.5779 -0.0000
vn 0.4081 -0.5779 -0.7068
vn -0.4081 -0.5779 -0.7068
vn -0.8161 -0.5779 -0.0000
vn -0.4081 -0.5779 0.7068
vn 0.4716 0.3321 0.8169
vt 0.000000 0.000000
s 0
usemtl Handle
f 40/30/23 41/30/23 42/30/23 43/30/23 44/30/23 39/30/23
f 50/30/24 48/30/24 62/30/24 53/30/24
f 37/30/25 38/30/25 44/30/25 43/30/25
f 35/30/26 36/30/26 42/30/26 41/30/26
f 33/30/27 34/30/27 40/30/27 39/30/27
f 38/30/28 33/30/28 39/30/28 44/30/28
f 36/30/29 37/30/29 43/30/29 42/30/29
f 34/30/30 35/30/30 41/30/30 40/30/30
f 46/30/31 45/30/31 52/30/31 56/30/31
f 47/30/32 49/30/32 58/30/32 60/30/32
f 51/30/33 54/30/33 61/30/33 59/30/33 57/30/33 55/30/33
f 49/30/34 46/30/34 56/30/34 58/30/34
f 48/30/35 47/30/35 60/30/35 62/30/35
f 37/30/36 36/30/36 49/30/36 47/30/36
f 33/30/37 38/30/37 48/30/37 50/30/37
f 34/30/38 33/30/38 50/30/38 45/30/38
f 36/30/39 35/30/39 46/30/39 49/30/39
f 38/30/40 37/30/40 47/30/40 48/30/40
f 35/30/41 34/30/41 45/30/41 46/30/41
f 52/30/42 53/30/42 54/30/42 51/30/42
f 56/30/43 52/30/43 51/30/43 55/30/43
f 58/30/44 56/30/44 55/30/44 57/30/44
f 60/30/45 58/30/45 57/30/45 59/30/45
f 62/30/46 60/30/46 59/30/46 61/30/46
f 53/30/47 62/30/47 61/30/47 54/30/47
f 45/30/48 50/30/48 53/30/48 52/30/48
